<svg width="508" height="541" viewBox="0 0 508 541" fill="none" xmlns="http://www.w3.org/2000/svg">
<path opacity="0.4" d="M27.3584 516.98L0 503.758L40.9351 483.968L68.2807 497.179L27.3584 516.98Z" fill="#D6D8E5"/>
<path d="M27.9224 490.33L5.26465 479.283L27.9224 468.235L50.5674 479.283L27.9224 490.33Z" fill="#D6D8E5"/>
<path d="M27.9224 512.424L5.26465 501.377V479.282L27.9224 490.329V512.424Z" fill="#B1B6C4"/>
<path d="M50.5796 501.377L27.9219 512.424V490.329L50.5796 479.282V501.377Z" fill="#C4C7D6"/>
<path d="M58.3671 494.474C60.3263 494.935 62.422 494.721 64.1948 493.879C65.6037 493.879 73.2374 491.163 74.2749 493.479C75.1843 495.502 71.8798 497.385 70.1122 497.742C66.2698 498.532 63.4007 500.155 61.8509 500.436C61.2607 500.615 60.6276 500.669 60.0069 500.593C59.3863 500.518 58.7969 500.315 58.2902 500.003C57.1887 499.029 57.2912 495.632 58.3671 494.474Z" fill="#4EE19F"/>
<path d="M61.8503 499.819C63.4 499.538 66.2563 497.915 70.1116 497.125C71.5845 496.822 74.1333 495.459 74.3895 493.825C74.7353 495.697 71.751 497.353 70.1116 497.688C66.2691 498.478 63.4 500.101 61.8503 500.382C61.26 500.561 60.6269 500.615 60.0062 500.539C59.3856 500.464 58.7962 500.261 58.2896 499.949C58.0454 499.731 57.8732 499.462 57.79 499.17C58.3599 499.539 59.0239 499.789 59.729 499.902C60.434 500.015 61.1604 499.986 61.8503 499.819V499.819Z" fill="#4EE19F"/>
<path d="M44.6105 488.231C46.5698 488.692 48.6654 488.478 50.4383 487.636C51.8472 487.636 59.404 484.92 60.5055 487.235C61.4149 489.259 58.1104 491.141 56.3557 491.499C52.5132 492.288 49.6442 493.911 48.0944 494.193C47.5041 494.371 46.871 494.426 46.2504 494.35C45.6297 494.275 45.0403 494.072 44.5337 493.76C43.4322 492.84 43.5474 489.443 44.6105 488.231Z" fill="#4EE19F"/>
<path d="M48.0944 493.63C49.6442 493.349 52.5004 491.726 56.3557 490.936C57.8286 490.633 60.3775 489.27 60.6336 487.636C60.9795 489.508 57.9951 491.163 56.3557 491.498C52.5132 492.288 49.6442 493.911 48.0944 494.193C47.5041 494.371 46.871 494.425 46.2504 494.35C45.6297 494.275 45.0404 494.072 44.5337 493.76C44.2924 493.544 44.1205 493.28 44.0342 492.992C44.6061 493.357 45.2706 493.604 45.9752 493.715C46.6799 493.826 47.4053 493.797 48.0944 493.63Z" fill="#4EE19F"/>
<path d="M23.1827 480.213C29.1385 482.377 34.7101 482.767 39.3338 480.689L44.0729 478.374C44.3547 483.546 44.6236 488.512 44.6236 488.512C44.6236 488.512 48.2612 490.838 51.0277 488.761C51.0277 488.761 51.6169 481.511 52.2189 474.37L57.1885 471.947C57.0688 472.328 57.0042 472.721 56.9964 473.115C56.9964 474.468 58.1491 494.625 58.1491 494.625C58.1491 494.625 61.8123 496.465 64.6429 494.398C64.6429 494.398 66.5513 471.038 66.9868 467.348C67.4735 463.15 61.966 461.083 58.4693 462.154L53.1411 463.832L53.3973 461.235C53.8968 457.037 48.3764 454.97 44.8926 456.041C41.7162 457.026 20.2496 463.821 20.2496 463.821C20.3831 465.566 20.6354 467.304 21.0053 469.025L12.5262 468.419C12.0779 475.117 17.2396 478.006 23.1827 480.213ZM37.989 468.603L43.663 465.844C43.5685 466.182 43.5085 466.526 43.4837 466.872L37.989 468.603Z" fill="#5B5B5B"/>
<path d="M7.94043 447.948C7.94043 447.948 8.63207 456.853 10.0154 458.141C11.3987 459.428 16.0865 460.305 16.0865 460.305L19.6856 465.26C19.6856 465.26 16.3939 449.376 15.6766 449.03C14.9593 448.684 7.94043 447.948 7.94043 447.948Z" fill="#FFCEA9"/>
<path d="M14.87 438.047C13.9972 437.703 13.0057 437.64 12.0815 437.869C11.1572 438.098 10.3635 438.604 9.84917 439.292C8.56835 441.142 7.14664 447.515 7.01855 448.597C7.55091 449.204 8.25613 449.688 9.06887 450.004C9.88161 450.32 10.7756 450.457 11.6679 450.404L14.87 438.047Z" fill="#EDEDED"/>
<path d="M16.1376 438.21C17.9564 438.286 19.314 438.675 19.5446 438.21C19.7399 437.417 19.8767 436.615 19.9544 435.808C19.7495 435.353 19.5702 434.877 19.5702 434.877C17.2775 433.687 16.5603 431.631 16.2529 429.164C15.7405 424.999 18.4046 421.363 23.323 420.93C27.9596 420.519 31.3666 423.267 32.2888 427.044C32.7755 428.905 33.7489 432.454 32.4297 435.494C31.6996 437.204 30.7518 438.567 29.868 438.827C28.9504 438.81 28.035 438.745 27.1271 438.632V438.632C27.1271 438.632 26.8837 439.79 26.7172 440.525C26.5507 441.261 26.6019 441.662 28.3566 442.57C30.1114 443.479 25.7181 445.351 22.8491 445.167C19.9801 444.983 16.7524 443.523 15.8686 441.921C14.8055 440.168 14.8824 438.113 16.1376 438.21Z" fill="#FFCEA9"/>
<path d="M62.3243 465.424C62.3232 465.643 62.2541 465.858 62.1238 466.048C61.9934 466.238 61.8064 466.396 61.5814 466.506L47.6845 473.279C47.459 473.39 47.2027 473.449 46.9416 473.449C46.6805 473.449 46.4241 473.39 46.1987 473.279L26.7302 463.779C26.5034 463.671 26.315 463.514 26.1844 463.323C26.0538 463.133 25.9857 462.917 25.9873 462.697V462.61L62.3243 465.424Z" fill="#E5E5E5"/>
<path d="M61.5812 466.505L47.6843 473.278C47.4605 473.393 47.2033 473.453 46.9414 473.451V465.423H62.3113C62.3116 465.641 62.2444 465.856 62.1163 466.046C61.9883 466.236 61.8038 466.394 61.5812 466.505V466.505Z" fill="#E5E5E5"/>
<path d="M47.4667 472.662C47.3099 472.741 47.1306 472.783 46.948 472.783C46.7653 472.783 46.5861 472.741 46.4292 472.662L26.1794 462.794C25.9233 462.664 25.9233 462.458 26.1794 462.339L41.0882 455.058L62.3242 465.423L47.4667 472.662Z" fill="#F4F4F4"/>
<path d="M34.4922 465.423L34.5947 465.466L41.0884 468.637L44.6491 466.895L44.7516 466.851L38.1553 463.638L34.4922 465.423Z" fill="#BFBFBF"/>
<path d="M34.5947 465.467L41.0885 468.637L44.6492 466.895L38.1554 463.735L34.5947 465.467Z" fill="#E5E5E5"/>
<path d="M56.8166 465.931L57.7516 466.386C57.7968 466.407 57.8474 466.418 57.8989 466.418C57.9504 466.418 58.001 466.407 58.0462 466.386L58.9428 465.953C59.0324 465.953 59.0452 465.845 58.9428 465.812L58.0078 465.347C57.9617 465.329 57.9114 465.319 57.8605 465.319C57.8096 465.319 57.7593 465.329 57.7132 465.347L56.8166 465.791C56.7526 465.834 56.7398 465.899 56.8166 465.931Z" fill="#4EE19F"/>
<path d="M55.4973 465.26L56.4323 465.715C56.4775 465.736 56.5281 465.747 56.5796 465.747C56.631 465.747 56.6817 465.736 56.7269 465.715L57.6234 465.282C57.7131 465.282 57.7131 465.174 57.6234 465.141L56.6884 464.687C56.6433 464.666 56.5926 464.655 56.5411 464.655C56.4897 464.655 56.439 464.666 56.3939 464.687L55.4973 465.12C55.4332 465.185 55.4204 465.26 55.4973 465.26Z" fill="#4EE19F"/>
<path d="M54.1652 464.644L55.1002 465.099C55.1485 465.117 55.2009 465.127 55.2539 465.127C55.307 465.127 55.3594 465.117 55.4076 465.099L56.2914 464.666C56.3811 464.666 56.3939 464.558 56.2914 464.515L55.3564 464.06C55.3112 464.039 55.2606 464.028 55.2091 464.028C55.1576 464.028 55.107 464.039 55.0618 464.06L54.1652 464.493C54.1012 464.536 54.0884 464.601 54.1652 464.644Z" fill="#4EE19F"/>
<path d="M52.8459 463.995L53.7809 464.45C53.827 464.468 53.8773 464.477 53.9282 464.477C53.9791 464.477 54.0294 464.468 54.0755 464.45L54.9721 464.017C55.0617 464.017 55.0745 463.909 54.9721 463.865L54.0371 463.411C53.9888 463.392 53.9364 463.383 53.8834 463.383C53.8304 463.383 53.778 463.392 53.7297 463.411L52.8459 463.844C52.7819 463.887 52.7691 463.952 52.8459 463.995Z" fill="#4EE19F"/>
<path d="M51.5139 463.346L52.4617 463.8C52.5069 463.821 52.5575 463.832 52.609 463.832C52.6605 463.832 52.7111 463.821 52.7563 463.8L53.64 463.367C53.7297 463.367 53.7425 463.259 53.64 463.226L52.705 462.761C52.659 462.743 52.6087 462.733 52.5577 462.733C52.5068 462.733 52.4565 462.743 52.4105 462.761L51.5139 463.205C51.4498 463.248 51.437 463.313 51.5139 463.346Z" fill="#4EE19F"/>
<path d="M50.1945 462.697L51.1295 463.162C51.1756 463.181 51.2259 463.19 51.2768 463.19C51.3278 463.19 51.3781 463.181 51.4241 463.162L52.3207 462.719C52.4104 462.719 52.4232 462.61 52.3207 462.578L51.3857 462.124C51.3382 462.103 51.2855 462.092 51.232 462.092C51.1785 462.092 51.1258 462.103 51.0783 462.124L50.1945 462.556C50.1305 462.6 50.1177 462.665 50.1945 462.697Z" fill="#4EE19F"/>
<path d="M48.876 462.014L49.811 462.469C49.8571 462.487 49.9074 462.497 49.9583 462.497C50.0092 462.497 50.0595 462.487 50.1056 462.469L51.0022 462.036C51.0918 462.036 51.0918 461.928 51.0022 461.885L50.0672 461.43C50.0211 461.412 49.9708 461.402 49.9199 461.402C49.8689 461.402 49.8186 461.412 49.7726 461.43L48.876 461.863C48.7991 461.95 48.7991 462.014 48.876 462.014Z" fill="#4EE19F"/>
<path d="M47.5432 461.409L48.4782 461.863C48.5234 461.884 48.574 461.895 48.6255 461.895C48.6769 461.895 48.7276 461.884 48.7728 461.863L49.6693 461.431C49.759 461.431 49.7718 461.322 49.6693 461.29L48.7343 460.825C48.6883 460.806 48.638 460.797 48.5871 460.797C48.5361 460.797 48.4858 460.806 48.4398 460.825L47.5432 461.268C47.4791 461.312 47.4663 461.377 47.5432 461.409Z" fill="#4EE19F"/>
<path d="M46.2247 460.76L47.1597 461.214C47.2049 461.235 47.2556 461.246 47.307 461.246C47.3585 461.246 47.4091 461.235 47.4543 461.214L48.3509 460.781C48.4405 460.781 48.4405 460.673 48.3509 460.641L47.3903 460.175C47.3451 460.154 47.2944 460.144 47.243 460.144C47.1915 460.144 47.1409 460.154 47.0957 460.175L46.1991 460.608C46.1094 460.662 46.1095 460.727 46.2247 460.76Z" fill="#4EE19F"/>
<path d="M44.8919 460.121L45.8269 460.575C45.8752 460.594 45.9276 460.604 45.9806 460.604C46.0336 460.604 46.086 460.594 46.1343 460.575L47.0181 460.143C47.1077 460.143 47.1205 460.034 47.0181 459.991L46.1087 459.526C46.0635 459.505 46.0129 459.494 45.9614 459.494C45.9099 459.494 45.8593 459.505 45.8141 459.526L44.9175 459.959C44.8279 460.013 44.8279 460.078 44.8919 460.121Z" fill="#4EE19F"/>
<path d="M43.5479 459.472L44.4829 459.926C44.5289 459.945 44.5792 459.954 44.6301 459.954C44.6811 459.954 44.7314 459.945 44.7774 459.926L45.674 459.494C45.7637 459.494 45.7765 459.385 45.674 459.342L44.8287 458.877C44.7804 458.858 44.728 458.849 44.675 458.849C44.622 458.849 44.5695 458.858 44.5213 458.877L43.6375 459.31C43.5479 459.364 43.5479 459.429 43.5479 459.472Z" fill="#4EE19F"/>
<path d="M42.2669 458.823L43.2147 459.277C43.2599 459.298 43.3105 459.309 43.362 459.309C43.4135 459.309 43.4641 459.298 43.5093 459.277L44.4059 458.845C44.4827 458.845 44.4955 458.736 44.4059 458.704L43.4709 458.239C43.4248 458.22 43.3745 458.211 43.3236 458.211C43.2727 458.211 43.2224 458.22 43.1763 458.239L42.2797 458.682C42.1772 458.769 42.1772 458.769 42.2669 458.823Z" fill="#4EE19F"/>
<path d="M40.9857 458.174L41.9207 458.639C41.9668 458.657 42.0171 458.667 42.068 458.667C42.1189 458.667 42.1692 458.657 42.2153 458.639L43.1119 458.195C43.2015 458.195 43.2143 458.087 43.1119 458.055L42.1769 457.6C42.1294 457.579 42.0767 457.568 42.0232 457.568C41.9696 457.568 41.9169 457.579 41.8695 457.6L40.9857 458.033C40.8576 458.076 40.8448 458.141 40.9857 458.174Z" fill="#4EE19F"/>
<path d="M38.9625 457.222L40.5379 457.99C40.584 458.008 40.6343 458.018 40.6852 458.018C40.7361 458.018 40.7864 458.008 40.8325 457.99L41.7291 457.557C41.8187 457.557 41.8187 457.449 41.7291 457.406L40.1664 456.605C40.1204 456.587 40.0701 456.577 40.0192 456.577C39.9682 456.577 39.9179 456.587 39.8719 456.605L38.9753 457.049C38.9618 457.048 38.9483 457.049 38.9356 457.053C38.9228 457.057 38.9111 457.063 38.901 457.07C38.8908 457.078 38.8826 457.087 38.8767 457.097C38.8707 457.107 38.8673 457.118 38.8664 457.13C38.8656 457.141 38.8674 457.153 38.8718 457.163C38.8761 457.174 38.883 457.184 38.8919 457.193C38.9008 457.201 38.9116 457.208 38.9237 457.213C38.9359 457.218 38.949 457.221 38.9625 457.222V457.222Z" fill="#4EE19F"/>
<path d="M53.5631 465.596L54.511 466.051C54.5561 466.072 54.6068 466.083 54.6582 466.083C54.7097 466.083 54.7604 466.072 54.8055 466.051L55.7021 465.618C55.779 465.618 55.7918 465.51 55.7021 465.477L54.7671 465.023C54.7219 465.002 54.6713 464.991 54.6198 464.991C54.5683 464.991 54.5177 465.002 54.4725 465.023L53.576 465.456C53.4991 465.499 53.4991 465.564 53.5631 465.596Z" fill="#4EE19F"/>
<path d="M52.2443 464.947L53.1793 465.412C53.2254 465.431 53.2757 465.44 53.3266 465.44C53.3776 465.44 53.4279 465.431 53.4739 465.412L54.3705 464.969C54.4602 464.969 54.473 464.86 54.3705 464.828L53.4355 464.374C53.388 464.353 53.3353 464.342 53.2818 464.342C53.2283 464.342 53.1756 464.353 53.1281 464.374L52.2443 464.806C52.1803 464.85 52.1675 464.915 52.2443 464.947Z" fill="#4EE19F"/>
<path d="M50.9123 464.308L51.8473 464.763C51.8956 464.781 51.948 464.791 52.001 464.791C52.054 464.791 52.1064 464.781 52.1547 464.763L53.0385 464.33C53.1281 464.33 53.1409 464.222 53.0385 464.179L52.1035 463.724C52.0574 463.706 52.0071 463.696 51.9562 463.696C51.9053 463.696 51.855 463.706 51.8089 463.724L50.9123 464.157C50.8483 464.179 50.8355 464.265 50.9123 464.308Z" fill="#4EE19F"/>
<path d="M49.5928 463.66L50.5278 464.114C50.5739 464.133 50.6242 464.142 50.6751 464.142C50.726 464.142 50.7763 464.133 50.8224 464.114L51.719 463.682C51.8086 463.682 51.8086 463.573 51.719 463.53L50.784 463.076C50.7379 463.057 50.6876 463.048 50.6367 463.048C50.5857 463.048 50.5354 463.057 50.4894 463.076L49.5928 463.508C49.5159 463.552 49.5159 463.617 49.5928 463.66Z" fill="#4EE19F"/>
<path d="M48.2736 463.01L49.2086 463.476C49.2547 463.494 49.305 463.504 49.3559 463.504C49.4069 463.504 49.4572 463.494 49.5032 463.476L50.3998 463.032C50.4895 463.032 50.5023 462.924 50.3998 462.891L49.4648 462.437C49.4173 462.416 49.3646 462.405 49.3111 462.405C49.2576 462.405 49.2049 462.416 49.1574 462.437L48.2736 462.87C48.2096 462.913 48.1968 462.978 48.2736 463.01Z" fill="#4EE19F"/>
<path d="M46.9416 462.372L47.8766 462.826C47.9249 462.845 47.9773 462.854 48.0303 462.854C48.0833 462.854 48.1357 462.845 48.184 462.826L49.0678 462.394C49.1574 462.394 49.1702 462.285 49.0678 462.242L48.1328 461.788C48.0867 461.769 48.0364 461.76 47.9855 461.76C47.9346 461.76 47.8843 461.769 47.8382 461.788L46.9416 462.22C46.8776 462.264 46.8648 462.329 46.9416 462.372Z" fill="#4EE19F"/>
<path d="M45.6221 461.722L46.5571 462.177C46.6032 462.195 46.6535 462.205 46.7044 462.205C46.7553 462.205 46.8056 462.195 46.8517 462.177L47.7483 461.744C47.8379 461.744 47.8379 461.636 47.7483 461.593L46.8133 461.138C46.7672 461.12 46.7169 461.11 46.666 461.11C46.615 461.11 46.5647 461.12 46.5187 461.138L45.6221 461.571C45.5452 461.614 45.5452 461.679 45.6221 461.722Z" fill="#4EE19F"/>
<path d="M44.2902 461.073L45.2252 461.528C45.2704 461.549 45.3211 461.56 45.3725 461.56C45.424 461.56 45.4747 461.549 45.5198 461.528L46.4164 461.095C46.5061 461.095 46.5189 460.987 46.4164 460.954L45.4814 460.489C45.4331 460.471 45.3807 460.461 45.3277 460.461C45.2747 460.461 45.2223 460.471 45.174 460.489L44.2902 460.933C44.2262 460.933 44.2134 461.041 44.2902 461.073Z" fill="#4EE19F"/>
<path d="M42.9586 460.425L43.9065 460.879C43.9516 460.9 44.0023 460.911 44.0538 460.911C44.1052 460.911 44.1559 460.9 44.201 460.879L45.0976 460.446C45.1745 460.446 45.1873 460.338 45.0976 460.306L44.1626 459.851C44.1174 459.83 44.0668 459.819 44.0153 459.819C43.9639 459.819 43.9132 459.83 43.868 459.851L42.9715 460.284C42.8946 460.327 42.8946 460.392 42.9586 460.425Z" fill="#4EE19F"/>
<path d="M41.6389 459.775L42.5739 460.24C42.62 460.259 42.6703 460.268 42.7212 460.268C42.7721 460.268 42.8224 460.259 42.8685 460.24L43.765 459.797C43.8547 459.797 43.8675 459.689 43.765 459.656L42.83 459.202C42.7826 459.181 42.7299 459.17 42.6763 459.17C42.6228 459.17 42.5701 459.181 42.5227 459.202L41.6389 459.634C41.5748 459.678 41.562 459.743 41.6389 459.775Z" fill="#4EE19F"/>
<path d="M40.3068 459.137L41.2419 459.591C41.2901 459.609 41.3425 459.619 41.3955 459.619C41.4486 459.619 41.501 459.609 41.5492 459.591L42.433 459.158C42.5227 459.158 42.5355 459.05 42.433 459.007L41.498 458.552C41.4519 458.534 41.4016 458.524 41.3507 458.524C41.2998 458.524 41.2495 458.534 41.2034 458.552L40.3068 458.985C40.2428 459.028 40.23 459.093 40.3068 459.137Z" fill="#4EE19F"/>
<path d="M38.9873 458.487L39.9223 458.942C39.9684 458.96 40.0187 458.969 40.0696 458.969C40.1205 458.969 40.1708 458.96 40.2169 458.942L41.1135 458.509C41.2031 458.509 41.2031 458.401 41.1135 458.357L40.1785 457.903C40.1324 457.885 40.0821 457.875 40.0312 457.875C39.9803 457.875 39.93 457.885 39.8839 457.903L38.9873 458.336C38.9105 458.379 38.9105 458.444 38.9873 458.487Z" fill="#4EE19F"/>
<path d="M54.8957 466.245L56.4711 467.013C56.5172 467.032 56.5675 467.041 56.6184 467.041C56.6693 467.041 56.7196 467.032 56.7657 467.013L57.6623 466.581C57.752 466.581 57.7648 466.472 57.6623 466.429L56.0869 465.661C56.0386 465.642 55.9862 465.633 55.9332 465.633C55.8802 465.633 55.8278 465.642 55.7795 465.661L54.8957 466.105C54.8317 466.148 54.8189 466.213 54.8957 466.245Z" fill="#4EE19F"/>
<path d="M38.8725 457.255L39.8075 457.709C39.8844 457.709 39.8844 457.806 39.8075 457.85L38.8597 458.304C38.8193 458.325 38.7727 458.336 38.7252 458.336C38.6777 458.336 38.6312 458.325 38.5907 458.304H38.5139C38.4739 458.288 38.4302 458.279 38.3858 458.279C38.3414 458.279 38.2977 458.288 38.2577 458.304L37.2587 458.791C37.2141 458.807 37.1662 458.815 37.1178 458.815C37.0694 458.815 37.0214 458.807 36.9769 458.791L36.3877 458.499C36.3109 458.499 36.3109 458.401 36.3877 458.358L37.3227 457.904L37.5148 457.817L37.6557 457.741L37.7966 457.676L38.5907 457.287C38.6301 457.261 38.6769 457.244 38.7264 457.239C38.7759 457.233 38.8264 457.238 38.8725 457.255V457.255Z" fill="#4EE19F"/>
<path d="M51.6809 468.431L52.6159 468.886C52.6611 468.907 52.7117 468.918 52.7632 468.918C52.8146 468.918 52.8653 468.907 52.9105 468.886L53.807 468.453C53.8967 468.453 53.8967 468.345 53.807 468.312L52.872 467.858C52.8269 467.837 52.7762 467.826 52.7247 467.826C52.6733 467.826 52.6226 467.837 52.5774 467.858L51.6809 468.291C51.6168 468.334 51.604 468.399 51.6809 468.431Z" fill="#4EE19F"/>
<path d="M50.3613 467.793L51.2963 468.247C51.3424 468.266 51.3927 468.275 51.4436 468.275C51.4946 468.275 51.5449 468.266 51.5909 468.247L52.4875 467.814C52.5772 467.814 52.5772 467.706 52.4875 467.663L51.5525 467.208C51.5064 467.19 51.4561 467.181 51.4052 467.181C51.3543 467.181 51.304 467.19 51.2579 467.208L50.3613 467.641C50.2845 467.685 50.2845 467.749 50.3613 467.793Z" fill="#4EE19F"/>
<path d="M49.029 467.143L49.9768 467.598C50.0219 467.619 50.0726 467.629 50.1241 467.629C50.1755 467.629 50.2262 467.619 50.2714 467.598L51.1679 467.165C51.2448 467.165 51.2576 467.057 51.1679 467.024L50.2329 466.57C50.1878 466.549 50.1371 466.538 50.0856 466.538C50.0342 466.538 49.9835 466.549 49.9383 466.57L49.0418 467.013C48.9649 467.046 48.9649 467.111 49.029 467.143Z" fill="#4EE19F"/>
<path d="M37.7834 461.658L38.7184 462.112C38.7659 462.133 38.8186 462.144 38.8721 462.144C38.9256 462.144 38.9783 462.133 39.0258 462.112L39.9096 461.68C39.9992 461.68 40.012 461.571 39.9096 461.539L38.9746 461.074C38.9285 461.055 38.8782 461.046 38.8273 461.046C38.7764 461.046 38.7261 461.055 38.68 461.074L37.7834 461.517C37.7194 461.561 37.7066 461.626 37.7834 461.658Z" fill="#4EE19F"/>
<path d="M36.4641 461.019L37.3991 461.474C37.4452 461.492 37.4954 461.502 37.5464 461.502C37.5973 461.502 37.6476 461.492 37.6937 461.474L38.5902 461.03C38.6799 461.03 38.6927 460.933 38.5902 460.89L37.6552 460.435C37.6078 460.414 37.5551 460.403 37.5015 460.403C37.448 460.403 37.3953 460.414 37.3478 460.435L36.4641 460.868C36.4 460.933 36.3872 460.933 36.4641 461.019Z" fill="#4EE19F"/>
<path d="M35.1447 460.37L36.0797 460.825C36.1249 460.845 36.1756 460.856 36.227 460.856C36.2785 460.856 36.3292 460.845 36.3743 460.825L37.2709 460.392C37.3606 460.392 37.3734 460.284 37.2709 460.251L36.3359 459.786C36.2876 459.767 36.2352 459.758 36.1822 459.758C36.1292 459.758 36.0768 459.767 36.0285 459.786L35.1447 460.23C35.0807 460.273 35.0679 460.338 35.1447 460.37Z" fill="#4EE19F"/>
<path d="M33.8259 459.721L34.7609 460.187C34.807 460.205 34.8573 460.215 34.9082 460.215C34.9591 460.215 35.0094 460.205 35.0555 460.187L35.9521 459.743C36.0417 459.743 36.0417 459.635 35.9521 459.602L35.0043 459.148C34.9591 459.127 34.9085 459.116 34.857 459.116C34.8055 459.116 34.7549 459.127 34.7097 459.148L33.8131 459.581C33.7619 459.624 33.7491 459.689 33.8259 459.721Z" fill="#4EE19F"/>
<path d="M47.3897 466.343L48.6705 466.97C48.7188 466.989 48.7712 466.998 48.8242 466.998C48.8772 466.998 48.9296 466.989 48.9779 466.97L49.8617 466.537C49.9513 466.537 49.9641 466.429 49.8617 466.386L48.5808 465.769C48.5357 465.748 48.485 465.737 48.4335 465.737C48.3821 465.737 48.3314 465.748 48.2863 465.769L47.3897 466.202C47.3128 466.234 47.3 466.343 47.3897 466.343Z" fill="#4EE19F"/>
<path d="M39.1027 462.307L40.3836 462.924C40.4287 462.945 40.4794 462.956 40.5309 462.956C40.5823 462.956 40.633 462.945 40.6782 462.924L41.5747 462.491C41.6644 462.491 41.6772 462.383 41.5747 462.34L40.2939 461.723C40.2478 461.705 40.1975 461.695 40.1466 461.695C40.0957 461.695 40.0454 461.705 39.9993 461.723L39.1027 462.156C39.0387 462.199 39.0259 462.264 39.1027 462.307Z" fill="#4EE19F"/>
<path d="M40.7684 463.096L46.9932 466.137C47.0393 466.155 47.0896 466.165 47.1405 466.165C47.1914 466.165 47.2417 466.155 47.2878 466.137L48.1844 465.704C48.274 465.704 48.274 465.596 48.1844 465.553L41.9724 462.523C41.9249 462.502 41.8722 462.491 41.8187 462.491C41.7652 462.491 41.7125 462.502 41.665 462.523L40.7812 462.956C40.7044 463.01 40.6916 463.096 40.7684 463.096Z" fill="#4EE19F"/>
<path d="M51.924 466.051L52.859 466.505C52.9042 466.526 52.9549 466.537 53.0063 466.537C53.0578 466.537 53.1084 466.526 53.1536 466.505L54.0502 466.073C54.1399 466.073 54.1527 465.964 54.0502 465.921L53.1152 465.467C53.0669 465.448 53.0145 465.438 52.9615 465.438C52.9085 465.438 52.8561 465.448 52.8078 465.467L51.924 465.899C51.86 465.943 51.8472 466.008 51.924 466.051Z" fill="#4EE19F"/>
<path d="M50.6047 465.401L51.5397 465.856C51.5849 465.876 51.6355 465.887 51.687 465.887C51.7385 465.887 51.7891 465.876 51.8343 465.856L52.7309 465.423C52.8205 465.423 52.8205 465.315 52.7309 465.282L51.7959 464.828C51.7507 464.807 51.7 464.796 51.6486 464.796C51.5971 464.796 51.5465 464.807 51.5013 464.828L50.6047 465.26C50.5407 465.26 50.5279 465.369 50.6047 465.401Z" fill="#4EE19F"/>
<path d="M49.2731 464.763L50.2209 465.218C50.267 465.236 50.3173 465.246 50.3682 465.246C50.4191 465.246 50.4694 465.236 50.5155 465.218L51.4121 464.785C51.4889 464.785 51.5017 464.677 51.4121 464.634L50.4771 464.179C50.431 464.161 50.3807 464.151 50.3298 464.151C50.2789 464.151 50.2286 464.161 50.1825 464.179L49.2859 464.612C49.2091 464.655 49.2091 464.72 49.2731 464.763Z" fill="#4EE19F"/>
<path d="M47.9533 464.114L48.8883 464.568C48.9335 464.589 48.9842 464.6 49.0356 464.6C49.0871 464.6 49.1377 464.589 49.1829 464.568L50.0795 464.136C50.1692 464.136 50.182 464.027 50.0795 463.984L49.1445 463.53C49.0984 463.511 49.0481 463.502 48.9972 463.502C48.9463 463.502 48.896 463.511 48.8499 463.53L47.9533 463.973C47.8893 464.017 47.8765 464.082 47.9533 464.114Z" fill="#4EE19F"/>
<path d="M46.634 463.465L47.569 463.919C47.6142 463.94 47.6648 463.951 47.7163 463.951C47.7678 463.951 47.8184 463.94 47.8636 463.919L48.7602 463.475C48.8498 463.475 48.8626 463.367 48.7602 463.335L47.8252 462.88C47.7777 462.86 47.725 462.849 47.6715 462.849C47.618 462.849 47.5652 462.86 47.5178 462.88L46.634 463.313C46.57 463.367 46.5571 463.432 46.634 463.465Z" fill="#4EE19F"/>
<path d="M45.3145 462.826L46.2495 463.28C46.2955 463.299 46.3458 463.308 46.3968 463.308C46.4477 463.308 46.498 463.299 46.5441 463.28L47.4406 462.848C47.5175 462.848 47.5303 462.739 47.4406 462.696L46.5056 462.242C46.4596 462.223 46.4093 462.214 46.3583 462.214C46.3074 462.214 46.2571 462.223 46.2111 462.242L45.3145 462.674C45.2376 462.718 45.2376 462.783 45.3145 462.826Z" fill="#4EE19F"/>
<path d="M43.9826 462.178L44.9176 462.632C44.9651 462.653 45.0178 462.664 45.0713 462.664C45.1248 462.664 45.1776 462.653 45.225 462.632L46.1088 462.199C46.1985 462.199 46.2113 462.091 46.1088 462.059L45.1738 461.593C45.1277 461.575 45.0774 461.565 45.0265 461.565C44.9756 461.565 44.9253 461.575 44.8792 461.593L43.9826 462.037C43.9186 462.08 43.9058 462.145 43.9826 462.178Z" fill="#4EE19F"/>
<path d="M42.6635 461.528L43.5472 462.015C43.5933 462.033 43.6436 462.043 43.6945 462.043C43.7454 462.043 43.7957 462.033 43.8418 462.015L44.7384 461.571C44.828 461.571 44.8409 461.463 44.7384 461.431L43.8034 460.976C43.7559 460.955 43.7032 460.944 43.6497 460.944C43.5962 460.944 43.5435 460.955 43.496 460.976L42.6122 461.409C42.5994 461.431 42.5866 461.495 42.6635 461.528Z" fill="#4EE19F"/>
<path d="M41.3447 460.932L42.2797 461.387C42.3258 461.405 42.3761 461.415 42.427 461.415C42.478 461.415 42.5283 461.405 42.5743 461.387L43.4709 460.954C43.5606 460.954 43.5606 460.846 43.4709 460.803L42.5359 460.348C42.4898 460.33 42.4395 460.32 42.3886 460.32C42.3377 460.32 42.2874 460.33 42.2413 460.348L41.3447 460.781C41.2679 460.781 41.2679 460.846 41.3447 460.932Z" fill="#4EE19F"/>
<path d="M40.0119 460.24L40.9469 460.694C40.9944 460.715 41.0471 460.726 41.1006 460.726C41.1541 460.726 41.2069 460.715 41.2543 460.694L42.1381 460.262C42.2278 460.262 42.2406 460.153 42.1381 460.121L41.2031 459.656C41.157 459.637 41.1067 459.628 41.0558 459.628C41.0049 459.628 40.9546 459.637 40.9085 459.656L40.0119 460.099C39.9479 460.143 39.9351 460.208 40.0119 460.24Z" fill="#4EE19F"/>
<path d="M38.6936 459.592L39.6286 460.057C39.6746 460.075 39.7249 460.085 39.7759 460.085C39.8268 460.085 39.8771 460.075 39.9232 460.057L40.8197 459.613C40.9094 459.613 40.9222 459.505 40.8197 459.473L39.8847 459.018C39.8373 458.997 39.7845 458.986 39.731 458.986C39.6775 458.986 39.6248 458.997 39.5773 459.018L38.6936 459.451C38.6295 459.494 38.6167 459.559 38.6936 459.592Z" fill="#4EE19F"/>
<path d="M37.374 458.953L38.309 459.407C38.3551 459.426 38.4054 459.435 38.4563 459.435C38.5073 459.435 38.5576 459.426 38.6036 459.407L39.5002 458.975C39.5899 458.975 39.5899 458.866 39.5002 458.823L38.5652 458.369C38.5191 458.35 38.4688 458.341 38.4179 458.341C38.367 458.341 38.3167 458.35 38.2706 458.369L37.374 458.801C37.2972 458.845 37.2972 458.91 37.374 458.953Z" fill="#4EE19F"/>
<path d="M53.2434 466.7L55.1902 467.641C55.2363 467.66 55.2866 467.669 55.3375 467.669C55.3884 467.669 55.4387 467.66 55.4848 467.641L56.3686 467.209C56.4582 467.209 56.471 467.1 56.3686 467.057L54.4345 466.116C54.3894 466.095 54.3387 466.084 54.2872 466.084C54.2358 466.084 54.1851 466.095 54.1399 466.116L53.2434 466.549C53.1793 466.592 53.1665 466.657 53.2434 466.7Z" fill="#4EE19F"/>
<path d="M51.2961 466.992L52.2311 467.457C52.2772 467.476 52.3275 467.485 52.3784 467.485C52.4293 467.485 52.4796 467.476 52.5257 467.457L53.4222 467.014C53.5119 467.014 53.5247 466.905 53.4222 466.873L52.4872 466.418C52.4421 466.398 52.3914 466.387 52.34 466.387C52.2885 466.387 52.2378 466.398 52.1927 466.418L51.2961 466.851C51.232 466.895 51.232 466.959 51.2961 466.992Z" fill="#4EE19F"/>
<path d="M49.9512 466.343L50.8862 466.797C50.9322 466.815 50.9825 466.825 51.0335 466.825C51.0844 466.825 51.1347 466.815 51.1808 466.797L52.0773 466.364C52.167 466.364 52.1798 466.256 52.0773 466.213L51.1295 465.758C51.0835 465.74 51.0332 465.73 50.9822 465.73C50.9313 465.73 50.881 465.74 50.8349 465.758L49.9512 466.191C49.9512 466.245 49.9512 466.343 49.9512 466.343Z" fill="#4EE19F"/>
<path d="M48.6708 465.705L49.6058 466.159C49.6509 466.18 49.7016 466.191 49.7531 466.191C49.8045 466.191 49.8552 466.18 49.9003 466.159L50.7969 465.726C50.8738 465.726 50.8866 465.618 50.7969 465.586L49.8619 465.121C49.8159 465.102 49.7656 465.093 49.7146 465.093C49.6637 465.093 49.6134 465.102 49.5673 465.121L48.6708 465.564C48.5811 465.607 48.5811 465.672 48.6708 465.705Z" fill="#4EE19F"/>
<path d="M47.39 465.055L48.325 465.521C48.3733 465.539 48.4257 465.549 48.4787 465.549C48.5317 465.549 48.5841 465.539 48.6324 465.521L49.5162 465.077C49.6058 465.077 49.6186 464.969 49.5162 464.936L48.5812 464.482C48.536 464.461 48.4853 464.45 48.4339 464.45C48.3824 464.45 48.3317 464.461 48.2866 464.482L47.39 464.915C47.2619 464.958 47.2491 465.023 47.39 465.055Z" fill="#4EE19F"/>
<path d="M46.007 464.417L46.942 464.872C46.9881 464.89 47.0384 464.899 47.0893 464.899C47.1403 464.899 47.1906 464.89 47.2366 464.872L48.1332 464.439C48.2229 464.439 48.2357 464.331 48.1332 464.287L47.1982 463.833C47.1499 463.814 47.0975 463.805 47.0445 463.805C46.9915 463.805 46.9391 463.814 46.8908 463.833L46.007 464.266C45.943 464.309 45.9302 464.374 46.007 464.417Z" fill="#4EE19F"/>
<path d="M44.6875 463.767L45.6225 464.222C45.6677 464.243 45.7183 464.253 45.7698 464.253C45.8213 464.253 45.8719 464.243 45.9171 464.222L46.8137 463.789C46.9033 463.789 46.9033 463.681 46.8137 463.648L45.8787 463.194C45.8335 463.173 45.7829 463.162 45.7314 463.162C45.6799 463.162 45.6293 463.173 45.5841 463.194L44.6875 463.627C44.6107 463.67 44.6107 463.735 44.6875 463.767Z" fill="#4EE19F"/>
<path d="M43.3557 463.096L44.2907 463.551C44.339 463.569 44.3914 463.579 44.4444 463.579C44.4974 463.579 44.5498 463.569 44.5981 463.551L45.4818 463.118C45.5715 463.118 45.5843 463.01 45.4818 462.967L44.5468 462.512C44.5017 462.491 44.451 462.48 44.3996 462.48C44.3481 462.48 44.2974 462.491 44.2523 462.512L43.3557 462.945C43.2916 463.021 43.2788 463.096 43.3557 463.096Z" fill="#4EE19F"/>
<path d="M42.0363 462.481L42.9713 462.935C43.0165 462.956 43.0672 462.967 43.1186 462.967C43.1701 462.967 43.2208 462.956 43.2659 462.935L44.1625 462.502C44.2522 462.502 44.265 462.394 44.1625 462.351L43.2275 461.896C43.1792 461.878 43.1268 461.868 43.0738 461.868C43.0208 461.868 42.9684 461.878 42.9201 461.896L42.0363 462.34C41.9723 462.372 41.9595 462.437 42.0363 462.481Z" fill="#4EE19F"/>
<path d="M40.7165 461.831L41.6515 462.285C41.6974 462.304 41.7478 462.314 41.7988 462.314C41.8499 462.314 41.9003 462.304 41.9461 462.285L42.8427 461.842C42.9324 461.842 42.9324 461.733 42.8427 461.701L41.8949 461.247C41.8497 461.226 41.7991 461.215 41.7476 461.215C41.6961 461.215 41.6455 461.226 41.6003 461.247L40.7037 461.679C40.6525 461.734 40.6397 461.798 40.7165 461.831Z" fill="#4EE19F"/>
<path d="M39.3975 461.192L40.3325 461.647C40.3786 461.665 40.4289 461.674 40.4798 461.674C40.5307 461.674 40.581 461.665 40.6271 461.647L41.5236 461.214C41.6005 461.214 41.6133 461.106 41.5236 461.062L40.5886 460.608C40.5426 460.59 40.4923 460.58 40.4414 460.58C40.3904 460.58 40.3401 460.59 40.2941 460.608L39.3975 461.041C39.3206 461.084 39.3206 461.149 39.3975 461.192Z" fill="#4EE19F"/>
<path d="M38.0656 460.544L39.0006 460.998C39.0481 461.019 39.1008 461.03 39.1543 461.03C39.2078 461.03 39.2606 461.019 39.308 460.998L40.1918 460.565C40.2815 460.565 40.2943 460.457 40.1918 460.425L39.2568 459.959C39.2107 459.941 39.1604 459.932 39.1095 459.932C39.0586 459.932 39.0083 459.941 38.9622 459.959L38.0656 460.403C38.0016 460.446 37.9888 460.511 38.0656 460.544Z" fill="#4EE19F"/>
<path d="M35.1067 459.104L37.6683 460.359C37.7144 460.378 37.7647 460.387 37.8156 460.387C37.8665 460.387 37.9168 460.378 37.9629 460.359L38.8595 459.916C38.9491 459.916 38.9619 459.808 38.8595 459.775L36.2978 458.52C36.2504 458.499 36.1976 458.488 36.1441 458.488C36.0906 458.488 36.0379 458.499 35.9904 458.52L35.1067 458.953C35.0426 458.996 35.0298 459.061 35.1067 459.104Z" fill="#4EE19F"/>
<path d="M52.6159 467.641L53.8967 468.269C53.9428 468.287 53.9931 468.297 54.044 468.297C54.095 468.297 54.1452 468.287 54.1913 468.269L55.0879 467.825C55.1776 467.825 55.1904 467.717 55.0879 467.685L53.8071 467.057C53.761 467.039 53.7107 467.029 53.6598 467.029C53.6089 467.029 53.5586 467.039 53.5125 467.057L52.6159 467.501C52.5134 467.544 52.5134 467.609 52.6159 467.641Z" fill="#4EE19F"/>
<path d="M62.3239 465.423L41.0879 455.057V440.991L41.2544 440.667L41.4209 440.602C41.6439 440.49 41.8983 440.432 42.1574 440.432C42.4165 440.432 42.6708 440.49 42.8939 440.602L62.3239 450.069C62.5457 450.181 62.7294 450.34 62.8574 450.529C62.9853 450.719 63.053 450.933 63.054 451.151V464.395C62.9131 465.033 62.7594 465.196 62.3239 465.423Z" fill="#E5E5E5"/>
<path d="M60.3771 451.746L41.0879 441.457V440.991L41.2544 440.667L41.4209 440.602C41.6439 440.49 41.8983 440.432 42.1574 440.432C42.4165 440.432 42.6708 440.49 42.8939 440.602L62.3239 450.069C62.563 450.184 62.755 450.358 62.8747 450.567L60.3771 451.746Z" fill="#E5E5E5"/>
<path d="M41.5747 440.634L61.9654 450.578C62.0727 450.631 62.1619 450.707 62.2247 450.798C62.2875 450.889 62.3217 450.992 62.324 451.097V465.423L41.088 455.057V440.872C41.0865 440.824 41.1005 440.776 41.1286 440.733C41.1567 440.691 41.1978 440.655 41.2477 440.631C41.2975 440.607 41.3541 440.594 41.4117 440.595C41.4692 440.595 41.5256 440.609 41.5747 440.634V440.634Z" fill="#DCEEFF"/>
<path d="M41.5747 440.634L61.9654 450.578C62.0727 450.631 62.1619 450.707 62.2247 450.798C62.2875 450.889 62.3217 450.992 62.324 451.097V465.423L41.088 455.057V440.872C41.0865 440.824 41.1005 440.776 41.1286 440.733C41.1567 440.691 41.1978 440.655 41.2477 440.631C41.2975 440.607 41.3541 440.594 41.4117 440.595C41.4692 440.595 41.5256 440.609 41.5747 440.634V440.634Z" fill="#F4F4F4"/>
<path d="M62.3239 465.423V464.904L41.0879 454.549V455.057L62.3239 465.423Z" fill="#DBDBDB"/>
<path d="M41.6387 454.311V441.381L41.8948 441.5V454.203L41.6387 454.311Z" fill="#1E3779"/>
<path d="M41.8945 441.5V454.203L61.6448 463.8V451.13L41.8945 441.5Z" fill="#4EE19F"/>
<path d="M41.6387 454.31L61.6451 464.059V463.799L41.8948 454.202L41.6387 454.31Z" fill="#031F60"/>
<path d="M18.7767 438.394C18.2644 439.476 19.558 440.752 22.9778 441.64C26.3976 442.527 26.705 441.38 26.705 441.38C28.986 442.243 31.2094 443.211 33.3653 444.28C35.4146 445.492 36.324 449.008 36.6058 454.937C36.926 461.797 36.9516 471.968 36.6826 473.732C36.6826 473.732 32.8402 476.978 27.9346 476.621C23.0291 476.264 14.7421 472.606 12.7441 469.772C12.7441 463.756 13.6278 462.771 12.4751 459.309C9.83659 451.378 8.4405 448.132 9.73413 442.851C10.7844 438.523 12.2958 437.972 14.3067 438.015C15.8035 438.075 17.2956 438.201 18.7767 438.394V438.394Z" fill="#F4F4F4"/>
<path d="M44.6874 462.306C40.6528 463.172 39.705 461.019 39.1798 459.244C37.899 454.916 37.2074 451.043 36.2468 448.597C35.1196 445.719 33.9413 445.254 32.2762 444.691C30.3422 444.031 28.6643 445.427 29.3047 449.095C30.1035 453.355 31.3421 457.547 33.0063 461.625C33.5954 463.46 34.7333 465.137 36.3108 466.494C38.3985 467.922 41.5366 467.857 46.2756 466.861C49.055 466.062 51.7535 465.074 54.3448 463.908C55.3695 463.507 56.1636 463.237 58.1873 462.458C60.192 461.718 61.9512 460.573 63.3106 459.125C64.3352 457.859 64.4761 457.264 64.2712 456.961C64.0662 456.658 63.5283 456.68 62.9903 457.21C62.1954 458.106 61.2146 458.872 60.0957 459.471C60.0957 459.471 61.3765 458.389 62.0553 457.643C62.6774 456.983 63.1902 456.255 63.5795 455.479C63.951 454.743 63.1953 453.748 62.6189 454.267C62.0425 454.786 61.7864 455.349 60.7361 456.431C60.1876 456.995 59.5596 457.5 58.8661 457.935C59.516 457.197 60.0943 456.415 60.5952 455.598C61.0446 454.942 61.2623 454.191 61.2228 453.434C61.2228 453.055 60.544 452.601 59.942 453.326C59.3182 454.359 58.5437 455.322 57.6365 456.193C56.7143 457.004 55.933 457.47 55.9074 457.275C55.8818 457.08 56.471 456.604 56.7912 455.674C57.1114 454.743 56.7912 453.737 56.1764 453.629C55.5616 453.52 55.6768 453.542 55.1901 454.429C54.5064 455.332 53.8945 456.271 53.3586 457.242C53.0426 458.149 52.4712 458.977 51.6935 459.655C50.7201 460.51 48.5299 461.495 44.6874 462.306Z" fill="#FFCEA9"/>
<path d="M30.7393 444.107C33.429 443.772 35.3375 444.799 36.5286 448.24C37.7198 451.681 38.5395 454.516 38.5395 454.516C37.4763 455.817 35.8624 456.723 34.031 457.048C30.8162 457.708 29.6506 456.409 29.6506 456.409C29.6506 456.409 28.754 452.795 28.2033 450.339C27.6525 447.883 27.4604 444.518 30.7393 444.107Z" fill="#EDEDED"/>
<path d="M32.1226 426.46C32.1226 426.46 36.3749 420.995 27.153 419.881C20.5055 419.08 16.2276 422.683 15.7409 426.6C15.267 430.344 17.9951 434.228 19.9548 435.776C21.891 436.192 23.9415 435.984 25.7057 435.191C25.8156 434.17 25.8584 433.144 25.8337 432.118C25.8337 432.118 22.5933 426.362 32.1226 426.46Z" fill="#242424"/>
<path d="M50.5794 495.61V479.196L35.1455 486.803L41.0885 497.179L50.5794 495.61Z" fill="#C4C7D6"/>
<path d="M40.4609 480.137L46.3783 477.237L50.5666 479.282L44.4315 482.225L40.4609 480.137Z" fill="#D6D8E5"/>
<path opacity="0.4" d="M284.471 405.749L211.567 370.195C206.303 367.63 206.969 363.151 213.04 360.186L260.276 337.15L352.227 382.032L305.003 405.068C298.919 408.032 289.735 408.346 284.471 405.749Z" fill="#D6D8E5"/>
<path d="M289.8 403.142L216.882 367.576C211.631 365.012 212.297 360.543 218.355 357.579L265.592 334.543L357.542 379.381L310.306 402.428C304.235 405.381 295.051 405.749 289.8 403.142Z" fill="#B1B4C4"/>
<path d="M357.542 379.381V377.033L353.303 379.1L357.542 379.381Z" fill="#B1B4C4"/>
<path d="M213.334 363.346V360.955L217.702 362.481L213.334 363.346Z" fill="#B1B4C4"/>
<path d="M289.8 400.794L216.882 365.229C211.631 362.665 212.297 358.185 218.355 355.231L265.592 332.174L357.542 377.023L310.306 400.058C304.235 403.034 295.051 403.348 289.8 400.794Z" fill="#D6D8E5"/>
<path d="M265.848 332.293L254.462 300.396L347.411 345.439L357.543 377.034L265.848 332.293Z" fill="#9EA1AF"/>
<path d="M354.853 378.343L357.542 377.034L353.508 374.372L354.853 378.343Z" fill="#9EA1AF"/>
<path d="M262.915 333.494L251.528 301.597L344.478 346.64L354.852 378.343L262.915 333.494Z" fill="#B1B4C4"/>
<path d="M498.868 432.096L139.072 256.618C134.025 254.151 129.939 247.55 129.939 241.87V6.76219C129.939 1.08169 134.025 -1.53675 139.072 0.930209L498.868 176.366C503.914 178.822 508 185.422 508 191.113V426.308C508 431.945 503.914 434.563 498.868 432.096Z" fill="#C4C7D6"/>
<path d="M500.713 434.52L504.709 432.584L502.98 422.597L500.713 434.52Z" fill="#C4C7D6"/>
<path d="M129.287 2.36916L133.206 0.464844L138.842 3.18066C138.842 3.18066 132.835 3.94888 132.694 3.91642C132.553 3.88396 129.287 2.36916 129.287 2.36916Z" fill="#B1B4C4"/>
<path d="M495.564 433.708L135.768 258.23C130.722 255.763 126.623 249.162 126.623 243.482V8.37419C126.623 2.68287 130.722 0.0752491 135.768 2.53139L495.551 178.01C500.598 180.477 504.696 187.077 504.696 192.769V427.866C504.709 433.557 500.611 436.165 495.564 433.708Z" fill="#363636"/>
<path d="M494.936 434.012L135.14 258.533C130.094 256.066 126.008 249.466 126.008 243.785V8.65574C126.008 2.97524 130.094 0.356803 135.14 2.82376L494.936 178.324C499.983 180.78 504.068 187.381 504.068 193.072V428.18C504.068 433.882 499.983 436.479 494.936 434.012Z" fill="#151515"/>
<path opacity="0.3" d="M499.124 419.719L130.567 239.966L130.759 9.6189C130.759 7.26014 132.719 6.30798 135.14 7.4549L494.936 182.966C496.211 183.667 497.272 184.613 498.034 185.726C498.795 186.839 499.234 188.088 499.316 189.372L499.124 419.719Z" fill="black"/>
<path d="M354.301 153.73L329.876 141.817V134.373L354.301 146.286V153.73Z" fill="white"/>
<path d="M410.76 181.289L358.874 155.959V148.515L410.76 173.845V181.289Z" fill="#4EE19F"/>
<path d="M354.301 177.545L329.876 165.643V158.199L354.301 170.101V177.545Z" fill="white"/>
<path d="M376.063 188.344L358.874 179.785V172.341L376.063 180.899V188.344Z" fill="#4EE19F"/>
<path d="M354.301 189.458L329.876 177.545V170.101L354.301 182.014V189.458Z" fill="white"/>
<path d="M387.872 205.829L358.874 191.687V184.243L387.872 198.384V205.829Z" fill="#4EE19F"/>
<path d="M354.301 201.36L329.876 189.458V182.014L354.301 193.926V201.36Z" fill="white"/>
<path d="M435.352 240.809L358.874 203.599V196.155L435.352 233.376V240.809Z" fill="#4EE19F"/>
<path d="M354.301 165.643L329.876 153.73V146.286L354.301 158.199V165.643Z" fill="white"/>
<path d="M454.142 214.387L358.874 167.872V160.428L454.142 206.943V214.387Z" fill="white"/>
<path d="M354.301 213.273L329.876 201.36V193.916L354.301 205.828V213.273Z" fill="white"/>
<path d="M441.282 256.445L358.874 215.513V208.068L441.282 249V256.445Z" fill="#4EE19F"/>
<path d="M354.301 237.098L329.876 225.185V217.741L354.301 229.654V237.098Z" fill="white"/>
<path d="M455.025 286.221L358.874 239.327V231.883L455.025 278.777V286.221Z" fill="white"/>
<path d="M354.301 249L329.876 237.098V229.654L354.301 241.556V249Z" fill="white"/>
<path d="M387.872 265.382L358.874 251.229V243.796L387.872 257.938V265.382Z" fill="#4EE19F"/>
<path d="M354.301 260.914L329.876 249.001V241.557L354.301 253.469V260.914Z" fill="white"/>
<path d="M418.125 292.172L358.874 263.142V255.698L418.125 284.728V292.172Z" fill="#4EE19F"/>
<path d="M354.301 225.186L329.876 213.273V205.829L354.301 217.741V225.186Z" fill="white"/>
<path d="M369.556 232.63L358.874 227.414V219.97L369.556 225.185V232.63Z" fill="#4EE19F"/>
<path d="M354.301 272.826L329.876 260.913V253.469L354.301 265.382V272.826Z" fill="white"/>
<path d="M397.119 293.665L358.874 275.055V267.61L397.119 286.221V293.665Z" fill="#4EE19F"/>
<path d="M354.301 296.641L329.876 284.728V277.284L354.301 289.197V296.641Z" fill="white"/>
<path d="M414.679 325.747L358.874 298.87V291.426L414.679 318.303V325.747Z" fill="#4EE19F"/>
<path d="M354.301 308.553L329.876 296.64V289.196L354.301 301.109V308.553Z" fill="white"/>
<path d="M365.842 314.504L358.874 310.782V303.338L365.842 307.06V314.504Z" fill="white"/>
<path d="M354.301 320.456L329.876 308.554V301.109L354.301 313.011V320.456Z" fill="white"/>
<path d="M390.882 338.265L358.874 322.695V315.251L390.882 330.821V338.265Z" fill="#4EE19F"/>
<path d="M354.301 284.728L329.876 272.826V265.371L354.301 277.284V284.728Z" fill="white"/>
<path d="M403.408 308.554L358.874 286.957V279.523L403.408 301.109V308.554Z" fill="#4EE19F"/>
<path d="M196.325 79.2994L171.899 67.3865V59.9424L196.325 71.8552V79.2994Z" fill="white"/>
<path d="M304.683 132.144L200.897 81.5281V74.084L304.683 124.7V132.144Z" fill="#4EE19F"/>
<path d="M196.325 103.114L171.899 91.2015V83.7573L196.325 95.6701V103.114Z" fill="white"/>
<path d="M269.575 138.842L200.897 105.343V97.8989L269.575 131.398V138.842Z" fill="#4EE19F"/>
<path d="M196.325 115.027L171.899 103.114V95.6699L196.325 107.583V115.027Z" fill="white"/>
<path d="M286.367 158.935L200.897 117.256V109.812L286.367 151.491V158.935Z" fill="#4EE19F"/>
<path d="M196.325 126.929L171.899 115.027V107.583L196.325 119.485V126.929Z" fill="white"/>
<path d="M260.417 158.199L200.897 129.169V121.725L260.417 150.755V158.199Z" fill="white"/>
<path d="M196.325 91.2016L171.899 79.2888V71.8555L196.325 83.7575V91.2016Z" fill="white"/>
<path d="M252.784 118.749L200.897 93.4412V85.9971L252.784 111.305V118.749Z" fill="#4EE19F"/>
<path d="M196.325 138.842L171.899 126.929V119.485L196.325 131.398V138.842Z" fill="white"/>
<path d="M231.419 155.959L200.897 141.071V133.626L231.419 148.515V155.959Z" fill="#4EE19F"/>
<path d="M196.325 162.657L171.899 150.744V143.311L196.325 155.213V162.657Z" fill="white"/>
<path d="M297.049 211.79L200.897 164.896V157.452L297.049 204.346V211.79Z" fill="#4EE19F"/>
<path d="M196.325 174.569L171.899 162.657V155.212L196.325 167.125V174.569Z" fill="white"/>
<path d="M229.895 190.94L200.897 176.799V169.354L229.895 183.496V190.94Z" fill="#4EE19F"/>
<path d="M196.325 186.482L171.899 174.57V167.125L196.325 179.038V186.482Z" fill="white"/>
<path d="M286.367 230.39L200.897 188.711V181.267L286.367 222.957V230.39Z" fill="white"/>
<path d="M196.325 150.755L171.899 138.842V131.398L196.325 143.311V150.755Z" fill="white"/>
<path d="M281.781 192.433L200.897 152.984V145.54L281.781 184.989V192.433Z" fill="#4EE19F"/>
<path d="M196.325 198.384L171.899 186.471V179.038L196.325 190.94V198.384Z" fill="white"/>
<path d="M211.58 205.829L200.897 200.624V193.18L211.58 198.385V205.829Z" fill="#4EE19F"/>
<path d="M196.325 222.21L171.899 210.297V202.853L196.325 214.766V222.21Z" fill="white"/>
<path d="M220.737 234.112L200.897 224.439V216.995L220.737 226.668V234.112Z" fill="#4EE19F"/>
<path d="M196.325 234.112L171.899 222.21V214.766L196.325 226.668V234.112Z" fill="white"/>
<path d="M252.784 261.66L200.897 236.352V228.908L252.784 254.216V261.66Z" fill="#4EE19F"/>
<path d="M196.325 246.025L171.899 234.112V226.668L196.325 238.581V246.025Z" fill="white"/>
<path d="M283.306 288.45L200.897 248.254V240.81L283.306 281.006V288.45Z" fill="white"/>
<path d="M196.325 210.297L171.899 198.385V190.94L196.325 202.853V210.297Z" fill="white"/>
<path d="M304.683 263.142L200.897 212.526V205.082L304.683 255.698V263.142Z" fill="#4EE19F"/>
<path opacity="0.4" d="M383.927 541C413.523 541 437.516 529.296 437.516 514.859C437.516 500.422 413.523 488.718 383.927 488.718C354.33 488.718 330.337 500.422 330.337 514.859C330.337 529.296 354.33 541 383.927 541Z" fill="#D6D8E5"/>
<path d="M442.78 511.148V441.456L335.819 443.728L336.049 507.999C334.051 515.735 339.123 523.818 351.304 529.758C372.233 539.961 406.162 539.972 427.09 529.758C437.606 524.597 442.832 517.867 442.78 511.148Z" fill="#4EE19F"/>
<path d="M389.191 467.564C418.788 467.564 442.781 455.861 442.781 441.423C442.781 426.986 418.788 415.282 389.191 415.282C359.594 415.282 335.602 426.986 335.602 441.423C335.602 455.861 359.594 467.564 389.191 467.564Z" fill="#4EE19F"/>
<path d="M434.314 441.456C434.314 445.708 430.126 450.177 422.851 453.737C414.91 457.588 404.061 459.969 392.636 460.358C391.496 460.358 390.356 460.423 389.203 460.423C376.523 460.423 364.266 457.978 355.543 453.737C348.268 450.177 344.08 445.708 344.08 441.456C344.08 437.204 348.268 432.735 355.543 429.175C364.266 424.923 376.523 422.478 389.191 422.478C390.343 422.478 391.496 422.478 392.636 422.542C404.061 422.932 414.91 425.312 422.851 429.175C430.126 432.702 434.314 437.128 434.314 441.456Z" fill="#28221C"/>
<path opacity="0.07" d="M434.314 441.456C434.314 445.709 430.126 450.177 422.851 453.737C414.91 457.589 404.061 459.969 392.636 460.359C381.211 459.969 370.35 457.589 362.421 453.737C355.134 450.112 350.945 445.676 350.945 441.456C350.945 437.237 355.121 432.735 362.396 429.176C370.337 425.313 381.198 422.932 392.623 422.543C404.048 422.932 414.897 425.313 422.838 429.176C430.126 432.703 434.314 437.128 434.314 441.456Z" fill="white"/>
<path d="M434.942 473.71L423.568 468.148L418.035 470.853L423.568 473.558V475.333L434.238 480.526L433.917 482.193C435.467 483.275 440.987 491.931 440.987 491.931L441.372 491.628V514.058C441.372 519.944 437.286 517.953 435.544 517.098L423.568 511.255L418.035 513.949L423.568 516.644V518.418L435.544 524.261C436.754 524.874 438.043 525.368 439.386 525.732L438.669 528.546L444.868 525.592H444.958H445.048C447.609 524.315 448.698 521.21 448.698 517.726V494.192C448.749 484.249 439.719 476.447 434.942 473.71Z" fill="#4EE19F"/>
<path d="M430.011 526.998L418.035 521.156V513.95L430.011 519.792C431.753 520.636 435.839 522.638 435.839 516.741V493.316C435.839 487.776 429.908 483.946 428.897 483.34L418.035 478.038V470.854L429.409 476.415C434.199 479.152 443.165 486.964 443.165 496.908V520.355C443.165 526.685 439.745 531.738 430.011 526.998Z" fill="#4EE19F"/>
<path opacity="0.4" d="M52.9874 402.515C73.367 402.515 89.8879 394.454 89.8879 384.51C89.8879 374.567 73.367 366.506 52.9874 366.506C32.6078 366.506 16.0869 374.567 16.0869 384.51C16.0869 394.454 32.6078 402.515 52.9874 402.515Z" fill="#D6D8E5"/>
<path d="M58.2521 399.182C78.6317 399.182 95.1526 391.121 95.1526 381.177C95.1526 371.234 78.6317 363.173 58.2521 363.173C37.8725 363.173 21.3516 371.234 21.3516 381.177C21.3516 391.121 37.8725 399.182 58.2521 399.182Z" fill="#D6D8E5"/>
<path d="M8.85059 319.634L21.7613 382.422H95.0628L107.653 320.088L8.85059 319.634Z" fill="#D6D8E5"/>
<path d="M58.2514 342.972C85.5633 342.972 107.704 332.174 107.704 318.854C107.704 305.534 85.5633 294.736 58.2514 294.736C30.9395 294.736 8.79883 305.534 8.79883 318.854C8.79883 332.174 30.9395 342.972 58.2514 342.972Z" fill="#E4E6EF"/>
<path d="M58.2515 337.649C46.1349 337.649 34.8381 335.399 26.4359 331.298C19.2248 327.792 15.1006 323.248 15.1006 318.855C15.1006 314.462 19.2248 309.918 26.4359 306.412C34.8253 302.311 46.1349 300.061 58.2515 300.061C70.3681 300.061 81.6778 302.311 90.0672 306.412C97.2782 309.918 101.402 314.462 101.402 318.855C101.402 323.248 97.3422 327.846 90.0672 331.298C81.6778 335.42 70.4449 337.649 58.2515 337.649Z" fill="#28221C"/>
<path d="M79.526 299.854C80.2259 291.74 78.6964 283.6 75.0571 276.068C71.4178 268.536 65.7671 261.816 58.5461 256.433V256.433L58.4052 256.314V256.542C51.1775 261.925 45.5217 268.647 41.8799 276.184C38.2382 283.72 36.7092 291.866 37.4125 299.984L9.11914 297.679C21.0564 335.668 58.5461 332.401 58.5461 332.401V332.325C61.3767 332.509 96.3432 334.035 107.781 297.593L79.526 299.854Z" fill="#4EE19F"/>
<path d="M58.5463 332.401C58.5463 332.401 55.9846 302.819 9.00403 282.899C8.9656 282.899 -2.12633 332.044 58.5463 332.401Z" fill="#4EE19F"/>
<path d="M58.252 332.401C58.252 332.401 60.8136 302.819 107.794 282.899C107.794 282.899 118.925 332.044 58.252 332.401Z" fill="#4EE19F"/>
</svg>
